<svg width="242" height="246" viewBox="0 0 242 246" fill="none" xmlns="http://www.w3.org/2000/svg">
<ellipse cx="121" cy="121" rx="121" ry="116" fill="#2BC6CB"/>
<g filter="url(#filter0_dg_59_39)">
<path d="M121 9C185.098 9 237 59.1766 237 121C237 182.823 185.098 233 121 233C56.9019 233 5 182.823 5 121C5 59.1766 56.9019 9 121 9Z" stroke="white" stroke-width="2" shape-rendering="crispEdges"/>
</g>
<g filter="url(#filter1_i_59_39)">
<path d="M97.2517 109.032C99.2775 111.245 99.4284 115.852 99.8283 114.808C100.228 113.764 100.109 108.45 97.9319 101.63C94.7423 93.704 93.4229 91.5225 96.9287 84.2452C100.435 76.9679 105.748 76.8482 110.636 70.3396C115.523 63.831 112.727 51.1516 124.555 47.78C136.382 44.4084 152.693 55.5603 152.693 55.5603C164.391 63.1539 174.551 73.5108 178.967 85.738C183.383 97.9651 183.627 100.453 184.573 111.112C185.518 121.77 178.595 142.345 171.895 149.835C165.195 157.326 157.019 166.167 141.535 172.208C141.535 172.208 120.314 177.93 104.646 174.121C89.1019 170.343 79.344 162.035 70.903 152.816C62.4619 143.596 57.3828 132.654 54.993 122.64C52.6033 112.626 50.8265 104.762 53.6571 96.7467C55.7992 90.6813 59.4197 83.2623 64.8175 77.1541C68.182 73.3469 72.6654 69.8536 76.8982 67.0431C77.9361 66.3539 79.1446 65.5661 80.5517 64.6659C87.281 60.3606 95.694 55.4665 100.334 52.8061C101.237 52.2882 100.861 51.0705 99.8305 51.2203C95.7568 51.8124 89.0803 53.2892 82.3071 56.9575C71.4305 62.8482 67.0868 62.7577 55.0991 77.8007C38.7649 98.298 43.4251 125.064 56.2861 147.217C66.051 164.037 79.5211 174.075 95.182 180.074C112.335 186.644 137.526 182.74 143.91 180.379C150.294 178.019 178.736 163.231 187.934 139.218C195.144 120.395 194.885 102.147 187.906 83.6547C186.956 81.1356 182.047 72.0718 176.369 64.3897C170.691 56.7076 155.555 46.8391 149.659 44.1019C143.764 41.3647 130.835 37.6099 126.197 38.4671C123.533 38.9593 122.058 39.5291 119.714 41.0125C117.976 42.1125 115.498 43.4295 113.076 47.09C108.762 53.6105 108.127 55.2032 107.856 56.9725C107.663 58.2385 107.384 59.4887 106.949 60.6933C105.827 63.8007 105.157 65.5355 104.065 66.8649C101.821 69.5972 90.2693 74.7504 88.7581 84.9468C88.5674 86.2337 88.434 87.371 88.3465 88.3759C87.926 93.2057 89.6709 98.9718 91.4807 103.469C93.0755 107.433 95.2259 106.82 97.2517 109.032Z" fill="white"/>
<path d="M124.215 96.6311C123.478 97.3064 122.177 97.3671 118.808 98.8701C116.643 99.8357 117.508 101.551 118.284 102.74C118.715 103.401 119.199 103.475 118.928 104.184C113.88 117.363 122.998 119.488 132.752 123.57C133.222 123.767 133.413 124.329 133.166 124.774C132.983 125.101 132.62 125.275 132.253 125.199C128.904 124.505 112.8 121.107 112.223 119.814C111.725 118.698 111.435 108.094 111.328 103.323C111.294 101.786 111.139 100.232 110.414 98.877C109.359 96.9042 107.223 94.4135 103.391 95.3593C97.3089 96.8607 104.062 104.236 104.306 106.724C104.55 109.212 97.5514 124.522 102.541 130.712C107.53 136.901 119.952 137.141 123.391 139.416C125.554 140.847 117.207 139.295 108.974 137.517C101.879 135.984 97.1297 129.386 97.7111 122.15L98.059 117.82C98.5876 111.242 93.2307 105.689 86.6378 105.982L77.8083 106.374C74.5148 106.52 72.0738 103.354 73.0524 100.206C73.7306 98.0239 71.2429 96.233 69.3889 97.5685L68.221 98.4098C66.3206 100.15 65.1248 102.527 64.8604 105.09L64.209 111.403C64.0983 112.475 64.4515 113.544 65.1795 114.339C65.7505 114.963 66.5144 115.376 67.3487 115.514L82.7389 118.053C83.2183 118.132 83.5288 118.602 83.4126 119.074C83.2963 119.546 82.7999 119.81 82.3159 119.765C79.0624 119.464 75.809 123.2 74.4396 125.934C71.0071 132.787 70.9939 141.207 75.9496 147.055C82.6022 154.904 89.6998 160.365 100.096 162.101C113.84 164.395 129.486 162.017 141.228 148.647C142.366 147.352 143.237 145.844 143.921 144.262L146.175 139.048C148.081 134.638 151.914 131.353 156.563 130.144C157.852 129.809 159.092 129.31 160.254 128.66L165.889 125.506C170.884 122.71 174.442 117.908 175.662 112.316L175.961 110.945C175.961 110.945 177.457 104.242 176.797 100.011C175.978 94.7623 174.225 91.9174 170.968 87.7212C167.954 83.8371 163.847 80.6832 161.421 79.5146C158.995 78.346 151.995 76.2521 144.929 76.3104C143.697 76.3205 142.338 76.4204 140.948 76.5748C133.47 77.4051 127.888 83.4207 126.015 90.7076C125.216 93.8158 124.491 96.3784 124.215 96.6311Z" fill="white"/>
</g>
<g filter="url(#filter2_d_59_39)">
<path d="M80.4958 187.166C80.9655 187.79 81.2526 188.494 81.3572 189.278C81.4672 190.046 81.401 190.761 81.1586 191.422C80.773 192.474 79.9632 193.613 78.7295 194.839L69.6923 203.938L68.8227 185.888L71.2701 185.557L71.7781 200.272L76.5675 195.577C77.1763 194.892 77.636 194.359 77.9466 193.977C78.2572 193.595 78.4896 193.193 78.6439 192.773C79.1397 191.421 78.8962 189.994 77.9132 188.492L80.4958 187.166Z" fill="white"/>
</g>
<g filter="url(#filter3_d_59_39)">
<path d="M86.1518 196.326L85.3187 196.174L87.0464 191.404L89.7449 191.948L86.1518 196.326ZM80.4284 207.35C80.3045 207.556 80.2496 207.755 80.2637 207.949C80.3 208.136 80.4149 208.287 80.6084 208.399C80.7605 208.488 80.9678 208.516 81.2301 208.484C81.5063 208.459 81.8197 208.373 82.1703 208.226L82.3162 208.727C81.6429 209.131 81.0037 209.324 80.3987 209.305C79.8075 209.294 79.3253 209.179 78.952 208.962C78.4542 208.672 78.1621 208.289 78.0756 207.813C78.003 207.345 78.1939 206.734 78.6483 205.98L83.1599 198.5L85.5348 198.883L80.4284 207.35Z" fill="white"/>
</g>
<g filter="url(#filter4_d_59_39)">
<path d="M94.6407 212.761C94.5547 212.968 94.5194 213.177 94.5348 213.39C94.5713 213.594 94.6935 213.738 94.9015 213.821C95.1095 213.904 95.3543 213.899 95.6361 213.805C95.9239 213.696 96.1659 213.551 96.362 213.371L96.6381 213.895C96.1915 214.302 95.6717 214.594 95.0785 214.771C94.5064 214.938 94.0123 214.939 93.5963 214.773C92.9129 214.5 92.495 214.109 92.3427 213.6C92.1904 213.091 92.3182 212.367 92.7262 211.427L92.637 211.391C90.9752 212.846 89.4906 213.313 88.1832 212.79C86.8906 212.274 86.0794 211.432 85.7496 210.267C85.4409 209.093 85.566 207.833 86.1249 206.489C86.5671 205.425 87.2366 204.461 88.1333 203.596C89.03 202.731 90.043 202.128 91.1724 201.787C92.3167 201.452 93.446 201.507 94.5603 201.952C95.2586 202.231 95.794 202.652 96.1666 203.214L99.8888 194.261L102.334 194.256L94.6407 212.761ZM93.883 203.206C93.051 202.874 92.2526 202.856 91.4879 203.153C90.7381 203.457 90.0833 203.927 89.5236 204.565C88.9701 205.188 88.5612 205.817 88.2971 206.452C88.0883 206.955 87.9471 207.544 87.8735 208.221C87.8 208.898 87.8717 209.539 88.0886 210.142C88.3116 210.731 88.7351 211.15 89.3591 211.399C90.4883 211.851 91.453 211.676 92.2534 210.876C93.0748 210.068 93.7282 209.08 94.2134 207.912L95.4756 204.876C95.3336 204.509 95.1255 204.176 94.8514 203.877C94.5921 203.584 94.2693 203.36 93.883 203.206Z" fill="white"/>
</g>
<g filter="url(#filter5_d_59_39)">
<path d="M107.623 207.059C108.382 207.256 109.051 207.602 109.63 208.099C110.224 208.599 110.587 209.222 110.718 209.966L108.801 210.438C108.649 210.018 108.394 209.613 108.035 209.223C107.68 208.817 107.255 208.551 106.759 208.422C105.969 208.218 105.224 208.248 104.523 208.513C103.826 208.763 103.229 209.195 102.732 209.81C102.235 210.426 101.873 211.158 101.644 212.008C101.315 213.228 101.256 214.279 101.467 215.16C101.681 216.025 102.238 216.574 103.136 216.806C104.406 217.134 105.419 216.851 106.173 215.955C106.928 215.06 107.468 214.009 107.792 212.804L108.072 211.761L110.348 211.432L108.708 217.528C108.654 217.729 108.656 217.936 108.715 218.149C108.773 218.363 108.911 218.497 109.128 218.553C109.577 218.67 110.071 218.467 110.609 217.945L110.857 218.406C110.53 218.883 110.084 219.247 109.52 219.498C108.959 219.733 108.447 219.79 107.982 219.67C107.316 219.498 106.887 219.123 106.695 218.544C106.518 217.969 106.54 217.273 106.76 216.454L106.714 216.442C106.106 217.161 105.394 217.712 104.578 218.096C103.782 218.469 103.02 218.561 102.292 218.373C100.975 218.032 100.097 217.326 99.6565 216.253C99.2357 215.17 99.229 213.871 99.6364 212.356C99.9607 211.151 100.535 210.094 101.36 209.183C102.189 208.257 103.154 207.598 104.254 207.204C105.369 206.815 106.492 206.767 107.623 207.059Z" fill="white"/>
</g>
<g filter="url(#filter6_d_59_39)">
<path d="M133.779 202.194C135.272 201.91 136.578 202.085 137.695 202.718C138.825 203.334 139.563 204.447 139.908 206.058C140.183 207.341 140.007 208.62 139.381 209.896C138.751 211.156 137.831 212.243 136.62 213.157C135.425 214.069 134.152 214.653 132.8 214.911C132.659 214.938 132.569 214.939 132.531 214.913L132.513 214.257C133.542 213.947 134.501 213.423 135.39 212.683C136.278 211.944 136.943 211.077 137.384 210.081C137.837 209.066 137.948 208.019 137.717 206.94C137.465 205.767 136.902 204.897 136.028 204.33C135.17 203.761 134.042 203.61 132.643 203.876C131.558 204.083 130.466 204.56 129.367 205.306C128.28 206.035 127.375 206.891 126.654 207.875L126.1 207.468C127.02 206.185 128.168 205.055 129.545 204.076C130.937 203.094 132.349 202.467 133.779 202.194ZM132.48 219.369L130.487 220.603L127.735 207.767L129.723 206.509L132.48 219.369Z" fill="white"/>
</g>
<g filter="url(#filter7_d_59_39)">
<path d="M147.548 216.072C147.592 216.259 147.69 216.426 147.84 216.572C147.99 216.719 148.198 216.763 148.463 216.703C148.682 216.654 148.886 216.51 149.075 216.271C149.277 216.013 149.414 215.761 149.487 215.515L149.969 215.776C149.826 216.349 149.563 216.867 149.18 217.33C148.798 217.792 148.372 218.076 147.904 218.181C146.592 218.475 145.748 217.836 145.373 216.264L140.965 197.824L142.861 196.465L147.548 216.072Z" fill="white"/>
</g>
<g filter="url(#filter8_d_59_39)">
<path d="M161.599 209.766C161.676 209.993 161.794 210.166 161.953 210.283C162.121 210.381 162.312 210.395 162.526 210.327C162.846 210.225 163.134 209.806 163.39 209.07L163.849 209.302C163.761 210.085 163.538 210.693 163.179 211.127C162.83 211.54 162.655 211.747 162.655 211.747C162.655 211.747 162.457 211.81 162.06 211.936C161.573 212.091 161.153 212.074 160.8 211.884C160.463 211.689 160.123 211.26 159.778 210.598C159.429 209.92 159.016 208.885 158.541 207.492C158.257 206.659 158.037 205.99 157.882 205.485L157.544 205.089L157.475 205.111C157.714 207.1 157.752 209.019 157.589 210.867C157.435 212.696 156.703 213.819 155.391 214.236C154.904 214.392 154.504 214.385 154.193 214.215C153.897 214.041 153.656 213.757 153.471 213.362C153.28 212.953 153.038 212.317 152.743 211.453L150.558 205.048C150.47 204.791 150.339 204.606 150.165 204.493C150.007 204.376 149.829 204.348 149.63 204.412C149.265 204.528 148.956 204.962 148.706 205.713L148.307 205.437C148.355 204.784 148.515 204.263 148.788 203.874C149.071 203.465 149.362 203.179 149.662 203.017C149.971 202.834 150.134 202.766 150.149 202.811C150.134 202.816 150.114 202.831 150.088 202.855C150.058 202.865 150.012 202.88 149.951 202.899C151.262 202.482 152.173 203.022 152.685 204.522L154.917 211.063C155.031 211.396 155.152 211.626 155.28 211.754C155.402 211.866 155.517 211.905 155.624 211.871C156.279 211.662 156.672 210.832 156.802 209.38C156.932 207.928 156.912 206.382 156.74 204.741C156.584 203.095 156.455 202.121 156.351 201.818L158.289 200.067L161.599 209.766Z" fill="white"/>
</g>
<g filter="url(#filter9_d_59_39)">
<path d="M165.349 196.927C165.835 196.683 166.232 196.592 166.538 196.653C166.859 196.707 167.114 196.91 167.305 197.262C167.512 197.641 167.616 198.018 167.619 198.392C167.637 198.759 167.617 199.091 167.56 199.388C167.502 199.684 167.468 199.889 167.457 200.002C167.781 200.198 168.283 200.367 168.961 200.51C169.523 200.64 169.987 200.774 170.354 200.913C170.72 201.051 171.1 201.299 171.495 201.656C171.895 201.992 172.264 202.469 172.6 203.088C172.997 203.819 173.188 204.573 173.173 205.349C173.173 206.118 172.967 206.829 172.557 207.481C172.162 208.126 171.592 208.635 170.848 209.007C170.39 209.237 169.84 209.396 169.197 209.485C168.546 209.561 167.996 209.487 167.548 209.264L167.966 206.668C168.546 206.932 169.106 207.125 169.646 207.248C170.201 207.364 170.7 207.311 171.143 207.089C171.759 206.781 172.174 206.323 172.389 205.715C172.611 205.085 172.57 204.489 172.264 203.927C172.02 203.477 171.586 203.13 170.963 202.888C170.346 202.624 169.53 202.362 168.515 202.101C168.391 202.074 168.15 202.016 167.792 201.927C167.427 201.823 167.149 201.73 166.958 201.647L166.636 204.571L165.708 204.472L166.154 201.272C165.655 200.824 165.261 200.332 164.971 199.798C164.642 199.194 164.507 198.626 164.565 198.097C164.616 197.553 164.877 197.163 165.349 196.927ZM165.796 197.749C165.61 197.842 165.515 197.952 165.511 198.079C165.522 198.199 165.58 198.358 165.687 198.554C165.825 198.807 165.979 199.007 166.15 199.154C166.321 199.301 166.44 199.403 166.506 199.459C166.61 199.282 166.658 199.034 166.649 198.717C166.647 198.378 166.596 198.117 166.497 197.934C166.428 197.808 166.332 197.731 166.208 197.704C166.091 197.655 165.953 197.67 165.796 197.749Z" fill="white"/>
</g>
<defs>
<filter id="filter0_dg_59_39" x="0" y="4" width="242" height="238" filterUnits="userSpaceOnUse" color-interpolation-filters="sRGB">
<feFlood flood-opacity="0" result="BackgroundImageFix"/>
<feColorMatrix in="SourceAlpha" type="matrix" values="0 0 0 0 0 0 0 0 0 0 0 0 0 0 0 0 0 0 127 0" result="hardAlpha"/>
<feOffset dy="4"/>
<feGaussianBlur stdDeviation="2"/>
<feComposite in2="hardAlpha" operator="out"/>
<feColorMatrix type="matrix" values="0 0 0 0 0 0 0 0 0 0 0 0 0 0 0 0 0 0 0.25 0"/>
<feBlend mode="normal" in2="BackgroundImageFix" result="effect1_dropShadow_59_39"/>
<feBlend mode="normal" in="SourceGraphic" in2="effect1_dropShadow_59_39" result="shape"/>
<feTurbulence type="fractalNoise" baseFrequency="2 2" numOctaves="3" seed="8907" />
<feDisplacementMap in="shape" scale="8" xChannelSelector="R" yChannelSelector="G" result="displacedImage" width="100%" height="100%" />
<feMerge result="effect2_texture_59_39">
<feMergeNode in="displacedImage"/>
</feMerge>
</filter>
<filter id="filter1_i_59_39" x="44.6361" y="38.3427" width="148.605" height="149.359" filterUnits="userSpaceOnUse" color-interpolation-filters="sRGB">
<feFlood flood-opacity="0" result="BackgroundImageFix"/>
<feBlend mode="normal" in="SourceGraphic" in2="BackgroundImageFix" result="shape"/>
<feColorMatrix in="SourceAlpha" type="matrix" values="0 0 0 0 0 0 0 0 0 0 0 0 0 0 0 0 0 0 127 0" result="hardAlpha"/>
<feOffset dy="4"/>
<feGaussianBlur stdDeviation="2"/>
<feComposite in2="hardAlpha" operator="arithmetic" k2="-1" k3="1"/>
<feColorMatrix type="matrix" values="0 0 0 0 0 0 0 0 0 0 0 0 0 0 0 0 0 0 0.25 0"/>
<feBlend mode="normal" in2="shape" result="effect1_innerShadow_59_39"/>
</filter>
<filter id="filter2_d_59_39" x="59.0627" y="183.364" width="27.4016" height="30.7262" filterUnits="userSpaceOnUse" color-interpolation-filters="sRGB">
<feFlood flood-opacity="0" result="BackgroundImageFix"/>
<feColorMatrix in="SourceAlpha" type="matrix" values="0 0 0 0 0 0 0 0 0 0 0 0 0 0 0 0 0 0 127 0" result="hardAlpha"/>
<feOffset dy="4"/>
<feGaussianBlur stdDeviation="2"/>
<feComposite in2="hardAlpha" operator="out"/>
<feColorMatrix type="matrix" values="0 0 0 0 0 0 0 0 0 0 0 0 0 0 0 0 0 0 0.25 0"/>
<feBlend mode="normal" in2="BackgroundImageFix" result="effect1_dropShadow_59_39"/>
<feBlend mode="normal" in="SourceGraphic" in2="effect1_dropShadow_59_39" result="shape"/>
</filter>
<filter id="filter3_d_59_39" x="73.1062" y="190.644" width="22.6296" height="27.7068" filterUnits="userSpaceOnUse" color-interpolation-filters="sRGB">
<feFlood flood-opacity="0" result="BackgroundImageFix"/>
<feColorMatrix in="SourceAlpha" type="matrix" values="0 0 0 0 0 0 0 0 0 0 0 0 0 0 0 0 0 0 127 0" result="hardAlpha"/>
<feOffset dy="4"/>
<feGaussianBlur stdDeviation="2"/>
<feComposite in2="hardAlpha" operator="out"/>
<feColorMatrix type="matrix" values="0 0 0 0 0 0 0 0 0 0 0 0 0 0 0 0 0 0 0.25 0"/>
<feBlend mode="normal" in2="BackgroundImageFix" result="effect1_dropShadow_59_39"/>
<feBlend mode="normal" in="SourceGraphic" in2="effect1_dropShadow_59_39" result="shape"/>
</filter>
<filter id="filter4_d_59_39" x="80.1716" y="190.444" width="28.2794" height="33.4011" filterUnits="userSpaceOnUse" color-interpolation-filters="sRGB">
<feFlood flood-opacity="0" result="BackgroundImageFix"/>
<feColorMatrix in="SourceAlpha" type="matrix" values="0 0 0 0 0 0 0 0 0 0 0 0 0 0 0 0 0 0 127 0" result="hardAlpha"/>
<feOffset dy="4"/>
<feGaussianBlur stdDeviation="2"/>
<feComposite in2="hardAlpha" operator="out"/>
<feColorMatrix type="matrix" values="0 0 0 0 0 0 0 0 0 0 0 0 0 0 0 0 0 0 0.25 0"/>
<feBlend mode="normal" in2="BackgroundImageFix" result="effect1_dropShadow_59_39"/>
<feBlend mode="normal" in="SourceGraphic" in2="effect1_dropShadow_59_39" result="shape"/>
</filter>
<filter id="filter5_d_59_39" x="94.2957" y="205.473" width="23.2059" height="22.9718" filterUnits="userSpaceOnUse" color-interpolation-filters="sRGB">
<feFlood flood-opacity="0" result="BackgroundImageFix"/>
<feColorMatrix in="SourceAlpha" type="matrix" values="0 0 0 0 0 0 0 0 0 0 0 0 0 0 0 0 0 0 127 0" result="hardAlpha"/>
<feOffset dy="4"/>
<feGaussianBlur stdDeviation="2"/>
<feComposite in2="hardAlpha" operator="out"/>
<feColorMatrix type="matrix" values="0 0 0 0 0 0 0 0 0 0 0 0 0 0 0 0 0 0 0.25 0"/>
<feBlend mode="normal" in2="BackgroundImageFix" result="effect1_dropShadow_59_39"/>
<feBlend mode="normal" in="SourceGraphic" in2="effect1_dropShadow_59_39" result="shape"/>
</filter>
<filter id="filter6_d_59_39" x="121.315" y="201.224" width="25.2188" height="27.6664" filterUnits="userSpaceOnUse" color-interpolation-filters="sRGB">
<feFlood flood-opacity="0" result="BackgroundImageFix"/>
<feColorMatrix in="SourceAlpha" type="matrix" values="0 0 0 0 0 0 0 0 0 0 0 0 0 0 0 0 0 0 127 0" result="hardAlpha"/>
<feOffset dy="4"/>
<feGaussianBlur stdDeviation="2"/>
<feComposite in2="hardAlpha" operator="out"/>
<feColorMatrix type="matrix" values="0 0 0 0 0 0 0 0 0 0 0 0 0 0 0 0 0 0 0.25 0"/>
<feBlend mode="normal" in2="BackgroundImageFix" result="effect1_dropShadow_59_39"/>
<feBlend mode="normal" in="SourceGraphic" in2="effect1_dropShadow_59_39" result="shape"/>
</filter>
<filter id="filter7_d_59_39" x="136.753" y="195.935" width="17.6564" height="30.6871" filterUnits="userSpaceOnUse" color-interpolation-filters="sRGB">
<feFlood flood-opacity="0" result="BackgroundImageFix"/>
<feColorMatrix in="SourceAlpha" type="matrix" values="0 0 0 0 0 0 0 0 0 0 0 0 0 0 0 0 0 0 127 0" result="hardAlpha"/>
<feOffset dy="4"/>
<feGaussianBlur stdDeviation="2"/>
<feComposite in2="hardAlpha" operator="out"/>
<feColorMatrix type="matrix" values="0 0 0 0 0 0 0 0 0 0 0 0 0 0 0 0 0 0 0.25 0"/>
<feBlend mode="normal" in2="BackgroundImageFix" result="effect1_dropShadow_59_39"/>
<feBlend mode="normal" in="SourceGraphic" in2="effect1_dropShadow_59_39" result="shape"/>
</filter>
<filter id="filter8_d_59_39" x="143.633" y="199.375" width="24.906" height="24.0333" filterUnits="userSpaceOnUse" color-interpolation-filters="sRGB">
<feFlood flood-opacity="0" result="BackgroundImageFix"/>
<feColorMatrix in="SourceAlpha" type="matrix" values="0 0 0 0 0 0 0 0 0 0 0 0 0 0 0 0 0 0 127 0" result="hardAlpha"/>
<feOffset dy="4"/>
<feGaussianBlur stdDeviation="2"/>
<feComposite in2="hardAlpha" operator="out"/>
<feColorMatrix type="matrix" values="0 0 0 0 0 0 0 0 0 0 0 0 0 0 0 0 0 0 0.25 0"/>
<feBlend mode="normal" in2="BackgroundImageFix" result="effect1_dropShadow_59_39"/>
<feBlend mode="normal" in="SourceGraphic" in2="effect1_dropShadow_59_39" result="shape"/>
</filter>
<filter id="filter9_d_59_39" x="157.808" y="195.391" width="20.9462" height="22.9705" filterUnits="userSpaceOnUse" color-interpolation-filters="sRGB">
<feFlood flood-opacity="0" result="BackgroundImageFix"/>
<feColorMatrix in="SourceAlpha" type="matrix" values="0 0 0 0 0 0 0 0 0 0 0 0 0 0 0 0 0 0 127 0" result="hardAlpha"/>
<feOffset dy="4"/>
<feGaussianBlur stdDeviation="2"/>
<feComposite in2="hardAlpha" operator="out"/>
<feColorMatrix type="matrix" values="0 0 0 0 0 0 0 0 0 0 0 0 0 0 0 0 0 0 0.25 0"/>
<feBlend mode="normal" in2="BackgroundImageFix" result="effect1_dropShadow_59_39"/>
<feBlend mode="normal" in="SourceGraphic" in2="effect1_dropShadow_59_39" result="shape"/>
</filter>
</defs>
</svg>
